<svg xmlns="http://www.w3.org/2000/svg" viewBox="0 0 256 256">
  <rect width="256" height="256" rx="56" fill="#F7F3EB"/>
  <path fill="#101417" d="M77 90h102c15 0 28 11 31 26l4 18c5 21-11 41-31 41h-10c-8 0-15-4-20-10l-10-11h-30l-10 11c-5 6-12 10-20 10H73c-20 0-36-20-31-41l4-18c3-15 16-26 31-26z"/>
  <circle cx="128" cy="123" r="27" fill="#F7F3EB"/>
  <path fill="#101417" d="M128 105c10 0 18 8 18 18s-8 18-18 18-18-8-18-18 8-18 18-18zm0 6c-7 0-12 5-12 12s5 12 12 12 12-5 12-12-5-12-12-12z"/>
  <rect x="89" y="116" width="18" height="7" rx="3.5" fill="#F7F3EB"/>
  <rect x="94.5" y="110.5" width="7" height="18" rx="3.5" fill="#F7F3EB"/>
  <circle cx="167" cy="116" r="4.5" fill="#F7F3EB"/>
  <circle cx="177" cy="126" r="4.5" fill="#F7F3EB"/>
</svg>
