<svg xmlns="http://www.w3.org/2000/svg" viewBox="0 0 256 256">
  <rect width="256" height="256" rx="56" fill="#101417"/>
  <path fill="#F7F3EB" d="M71 98c5-17 20-28 38-28h38c4 0 7 1 10 3l18 14h12c18 0 33 11 38 28l7 23c4 16-8 32-24 32h-17c-7 0-13-3-17-7l-19-21H99l-18 21c-4 4-10 7-17 7H47c-16 0-28-16-24-32l7-23z"/>
  <circle cx="128" cy="114" r="26" fill="#101417"/>
  <circle cx="128" cy="114" r="15" fill="#F7F3EB"/>
  <rect x="82" y="114" width="18" height="7" rx="3.5" fill="#101417"/>
  <rect x="87.5" y="108.5" width="7" height="18" rx="3.5" fill="#101417"/>
  <circle cx="168" cy="111" r="4.5" fill="#101417"/>
  <circle cx="178" cy="121" r="4.5" fill="#101417"/>
</svg>
