<svg xmlns="http://www.w3.org/2000/svg" viewBox="0 0 256 256">
  <rect width="256" height="256" rx="56" fill="#101417"/>
  <path fill="#F7F3EB" d="M79 86h98c15 0 28 11 31 26l5 22c5 20-11 39-31 39h-8c-8 0-16-4-21-11l-10-13h-30l-10 13c-5 7-13 11-21 11h-8c-20 0-36-19-31-39l5-22c3-15 16-26 31-26z"/>
  <circle cx="128" cy="127" r="30" fill="#101417"/>
  <path fill="#F7F3EB" d="M128 106l9 5 9 1-6 8 1 10-9-5-9 5 1-10-6-8 9-1z"/>
  <rect x="88" y="117" width="20" height="8" rx="4" fill="#101417"/>
  <rect x="94" y="111" width="8" height="20" rx="4" fill="#101417"/>
  <circle cx="166" cy="118" r="5" fill="#101417"/>
  <circle cx="178" cy="130" r="5" fill="#101417"/>
</svg>
